<svg width="26" height="26" viewBox="0 0 34 30" fill="none" xmlns="http://www.w3.org/2000/svg">
<path d="M33.5511 16.7355L30.8921 19.5134C30.7439 19.6688 30.5677 19.7921 30.3738 19.8762C30.1799 19.9603 29.972 20.0036 29.762 20.0036C29.552 20.0036 29.3441 19.9603 29.1502 19.8762C28.9562 19.7921 28.7801 19.6688 28.6319 19.5134L25.9729 16.7355C25.6827 16.4301 25.5169 16.0192 25.5101 15.589C25.5033 15.1587 25.656 14.7424 25.9364 14.4271C26.2167 14.1118 26.6029 13.922 27.0141 13.8974C27.4253 13.8728 27.8297 14.0153 28.1426 14.2951C28.0054 11.9433 27.1897 9.69012 25.8031 7.83195C24.4165 5.97377 22.5239 4.59771 20.3743 3.88487C18.2247 3.17203 15.9189 3.15581 13.7603 3.83834C11.6017 4.52087 9.69151 5.87017 8.28106 7.70867C8.01383 8.04467 7.63102 8.25763 7.215 8.30173C6.79899 8.34584 6.38303 8.21754 6.05665 7.94447C5.73026 7.6714 5.51954 7.27537 5.46984 6.84162C5.42014 6.40787 5.53542 5.97107 5.79088 5.62523C7.61607 3.24366 10.093 1.50011 12.8912 0.627167C15.6894 -0.245775 18.6758 -0.206609 21.4522 0.739441C24.2285 1.68549 26.6627 3.49345 28.4301 5.92213C30.1975 8.35082 31.214 11.2848 31.3441 14.3326C31.6525 14.0459 32.0553 13.8953 32.4678 13.9124C32.8803 13.9295 33.2704 14.1129 33.5561 14.4242C33.8418 14.7355 34.0009 15.1503 34 15.5816C33.9991 16.0129 33.8382 16.427 33.5511 16.7369V16.7355ZM28.2091 24.3748C26.3839 26.7563 23.907 28.4999 21.1088 29.3728C18.3106 30.2458 15.3242 30.2066 12.5478 29.2606C9.7715 28.3145 7.33728 26.5066 5.56989 24.0779C3.80249 21.6492 2.78596 18.7152 2.65589 15.6674C2.34748 15.9541 1.94471 16.1047 1.53222 16.0876C1.11974 16.0705 0.729645 15.8871 0.443918 15.5758C0.158191 15.2645 -0.000925232 14.8497 4.0476e-06 14.4184C0.000933327 13.9871 0.161836 13.573 0.448901 13.2631L3.10793 10.4852C3.25615 10.3298 3.43227 10.2065 3.62619 10.1224C3.82012 10.0383 4.02803 9.99497 4.23801 9.99497C4.44799 9.99497 4.6559 10.0383 4.84983 10.1224C5.04375 10.2065 5.21988 10.3298 5.3681 10.4852L8.02712 13.2631C8.31726 13.5685 8.48309 13.9794 8.4899 14.4096C8.4967 14.8399 8.34396 15.2562 8.06364 15.5715C7.78332 15.8868 7.39714 16.0766 6.98592 16.1012C6.5747 16.1258 6.1703 15.9833 5.85736 15.7035C5.99301 18.0762 6.8228 20.3481 8.23452 22.2122C9.26861 20.8381 10.5867 19.7261 12.0901 18.9592C11.1319 17.9455 10.4821 16.6585 10.2224 15.2599C9.96267 13.8614 10.1046 12.4138 10.6304 11.0994C11.1563 9.78491 12.0424 8.66226 13.1774 7.87264C14.3125 7.08303 15.6457 6.66172 17.0093 6.66172C18.373 6.66172 19.7062 7.08303 20.8412 7.87264C21.9762 8.66226 22.8624 9.78491 23.3882 11.0994C23.914 12.4138 24.0559 13.8614 23.7962 15.2599C23.5365 16.6585 22.8867 17.9455 21.9285 18.9592C23.4299 19.7301 24.7448 20.846 25.7748 22.2233C26.054 21.9086 26.4385 21.7186 26.8485 21.6926C27.2584 21.6667 27.6621 21.807 27.9756 22.0842C28.289 22.3614 28.4881 22.7542 28.5314 23.1808C28.5746 23.6075 28.4587 24.0351 28.2078 24.3748H28.2091ZM17 17.7786C17.7363 17.7786 18.456 17.5505 19.0682 17.1232C19.6804 16.6958 20.1575 16.0885 20.4393 15.3778C20.721 14.6672 20.7947 13.8852 20.6511 13.1308C20.5075 12.3764 20.1529 11.6834 19.6323 11.1395C19.1117 10.5956 18.4484 10.2252 17.7262 10.0752C17.0041 9.92511 16.2556 10.0021 15.5754 10.2965C14.8952 10.5908 14.3138 11.0893 13.9047 11.7289C13.4957 12.3684 13.2774 13.1203 13.2774 13.8895C13.2774 14.921 13.6696 15.9102 14.3677 16.6395C15.0658 17.3689 16.0127 17.7786 17 17.7786ZM17 26.6679C19.3086 26.6729 21.5613 25.9268 23.4455 24.5331C22.7056 23.4733 21.7367 22.6109 20.6177 22.0161C19.4986 21.4213 18.2609 21.1109 17.0054 21.1101C15.7498 21.1092 14.5117 21.4181 13.392 22.0114C12.2722 22.6048 11.3023 23.4659 10.5612 24.5248C12.4422 25.9206 14.6927 26.6697 17 26.6679Z" fill="#343330"/>
</svg>
