<svg width="25" height="15" viewBox="0 0 31 24" fill="none" xmlns="http://www.w3.org/2000/svg">
<path d="M29.7732 3.68274L29.7645 3.674L26.7732 0.731495C26.3057 0.264109 25.6721 0.000922924 25.011 -0.000482623C24.3499 -0.00188817 23.7152 0.258601 23.2457 0.723995L17.6207 6.26275L11.9957 11.8015L7.75447 7.72025C7.28447 7.25666 6.65018 6.99779 5.99002 7.00013C5.32986 7.00247 4.69742 7.26583 4.23072 7.73275L1.23072 10.7327C0.762804 11.2015 0.5 11.8367 0.5 12.499C0.5 13.1613 0.762804 13.7965 1.23072 14.2652L10.1832 23.2652C10.4154 23.4975 10.691 23.6817 10.9944 23.8074C11.2978 23.9331 11.623 23.9978 11.9513 23.9978C12.2797 23.9978 12.6049 23.9331 12.9083 23.8074C13.2117 23.6817 13.4873 23.4975 13.7195 23.2652L29.7732 7.21774C30.2419 6.74893 30.5052 6.11316 30.5052 5.45024C30.5052 4.78733 30.2419 4.15156 29.7732 3.68274ZM27.2945 5.4515L10.2545 14.2802C10.7224 14.7428 27.2945 5.4515 12.012 15.0023C27.2945 5.4515 26.8265 5.91409 27.2945 5.4515Z" fill="#F15D5D"/>
</svg>
