<svg width="33" height="33" viewBox="0 0 33 33" fill="none" xmlns="http://www.w3.org/2000/svg">
<path d="M22.5 1.99982H10.5C9.57174 1.99982 8.6815 2.36857 8.02513 3.02494C7.36875 3.68132 7 4.57156 7 5.49982V27.4998C7 28.4281 7.36875 29.3183 8.02513 29.9747C8.6815 30.6311 9.57174 30.9998 10.5 30.9998H22.5C23.4283 30.9998 24.3185 30.6311 24.9749 29.9747C25.6313 29.3183 26 28.4281 26 27.4998V5.49982C26 4.57156 25.6313 3.68132 24.9749 3.02494C24.3185 2.36857 23.4283 1.99982 22.5 1.99982ZM10 9.99982H23V22.9998H10V9.99982ZM10.5 4.99982H22.5C22.6326 4.99982 22.7598 5.0525 22.8536 5.14626C22.9473 5.24003 23 5.36721 23 5.49982V6.99982H10V5.49982C10 5.36721 10.0527 5.24003 10.1464 5.14626C10.2402 5.0525 10.3674 4.99982 10.5 4.99982ZM22.5 27.9998H10.5C10.3674 27.9998 10.2402 27.9471 10.1464 27.8534C10.0527 27.7596 10 27.6324 10 27.4998V25.9998H23V27.4998C23 27.6324 22.9473 27.7596 22.8536 27.8534C22.7598 27.9471 22.6326 27.9998 22.5 27.9998Z" fill="#343330"/>
</svg>