<svg width="25" height="20" viewBox="0 0 27 20" fill="none" xmlns="http://www.w3.org/2000/svg">
<path d="M13.4202 13.4318C14.4458 12.4567 15.1814 11.1484 15.5273 9.6843C15.8733 8.22022 15.8127 6.67121 15.354 5.24735C14.8952 3.8235 14.0604 2.59369 12.9628 1.72472C11.8652 0.855741 10.5578 0.389648 9.21809 0.389648C7.87833 0.389648 6.57099 0.855741 5.47337 1.72472C4.37574 2.59369 3.54094 3.8235 3.08218 5.24735C2.62343 6.67121 2.56291 8.22022 2.90884 9.6843C3.25477 11.1484 3.99041 12.4567 5.01599 13.4318C3.41452 14.2509 2.02668 15.523 0.986343 17.1254C0.794194 17.4216 0.713929 17.792 0.763206 18.1551C0.812483 18.5182 0.987265 18.8443 1.2491 19.0617C1.51094 19.279 1.83838 19.3698 2.1594 19.3141C2.48042 19.2583 2.76871 19.0606 2.96086 18.7645C3.68101 17.6519 4.62288 16.7471 5.71005 16.1233C6.79722 15.4996 7.99907 15.1745 9.21809 15.1745C10.4371 15.1745 11.639 15.4996 12.7261 16.1233C13.8133 16.7471 14.7552 17.6519 15.4753 18.7645C15.6675 19.0608 15.9558 19.2586 16.2769 19.3145C16.598 19.3703 16.9256 19.2796 17.1876 19.0623C17.4496 18.8449 17.6245 18.5187 17.6738 18.1555C17.7232 17.7923 17.643 17.4217 17.4509 17.1254C16.4099 15.5232 15.0218 14.2512 13.4202 13.4318ZM5.1364 7.78287C5.1364 6.86971 5.37579 5.97706 5.82429 5.2178C6.27279 4.45853 6.91026 3.86675 7.65609 3.5173C8.40193 3.16785 9.22262 3.07642 10.0144 3.25457C10.8062 3.43272 11.5334 3.87245 12.1043 4.51815C12.6751 5.16385 13.0639 5.98652 13.2213 6.88214C13.3788 7.77775 13.298 8.70608 12.9891 9.54973C12.6801 10.3934 12.157 11.1145 11.4858 11.6218C10.8145 12.1291 10.0254 12.3999 9.21809 12.3999C8.13556 12.3999 7.09736 11.9135 6.3319 11.0476C5.56643 10.1817 5.1364 9.00738 5.1364 7.78287ZM26.1673 19.0565C26.0377 19.1642 25.8905 19.242 25.7343 19.2854C25.5781 19.3289 25.4158 19.337 25.2568 19.3095C25.0978 19.2819 24.9452 19.2192 24.8076 19.1249C24.67 19.0306 24.5502 18.9065 24.455 18.7598C23.7331 17.6494 22.7909 16.7461 21.7041 16.1227C20.6173 15.4992 19.4164 15.1729 18.1978 15.1701C17.873 15.1701 17.5616 15.0242 17.3319 14.7644C17.1023 14.5047 16.9733 14.1524 16.9733 13.785C16.9733 13.4176 17.1023 13.0653 17.3319 12.8056C17.5616 12.5458 17.873 12.3999 18.1978 12.3999C18.7988 12.3991 19.3922 12.2482 19.9357 11.9579C20.4791 11.6677 20.9592 11.2453 21.3417 10.7209C21.7241 10.1965 21.9994 9.58299 22.148 8.92428C22.2966 8.26557 22.3147 7.57787 22.2012 6.91031C22.0876 6.24275 21.8451 5.6118 21.491 5.06252C21.1369 4.51324 20.6799 4.05919 20.1527 3.7328C19.6255 3.40641 19.0411 3.21574 18.4412 3.1744C17.8413 3.13306 17.2408 3.24208 16.6825 3.49366C16.5329 3.56293 16.3727 3.59803 16.2111 3.59693C16.0495 3.59583 15.8897 3.55855 15.7409 3.48725C15.5921 3.41595 15.4572 3.31203 15.3441 3.18149C15.2309 3.05095 15.1418 2.89637 15.0817 2.72666C15.0216 2.55695 14.9919 2.37547 14.9941 2.19268C14.9963 2.00989 15.0305 1.82941 15.0947 1.66165C15.1589 1.49388 15.2518 1.34215 15.3681 1.2152C15.4844 1.08825 15.6218 0.988597 15.7723 0.921981C17.2134 0.269301 18.813 0.218661 20.2842 0.77914C21.7553 1.33962 23.0019 2.47456 23.8003 3.98047C24.5988 5.48638 24.8969 7.26476 24.6412 8.99676C24.3855 10.7287 23.5927 12.3011 22.405 13.4318C24.0065 14.2509 25.3943 15.523 26.4346 17.1254C26.6249 17.4219 26.7036 17.7915 26.6535 18.1534C26.6034 18.5153 26.4286 18.84 26.1673 19.0565Z" fill="black"/>
</svg>
