<svg width="23" height="31" viewBox="0 0 23 31" fill="none" xmlns="http://www.w3.org/2000/svg">
<ellipse cx="11.5" cy="11" rx="10.5" ry="11" fill="#FFD43E"/>
<path d="M5 22H18V29L11.5 27L5 29V22Z" fill="#2A96F9"/>
<path d="M23 11.5065C23.0011 9.57862 22.5175 7.68134 21.5936 5.98919C20.6697 4.29703 19.3353 2.8643 17.7129 1.82273C16.0906 0.781153 14.2324 0.16417 12.3092 0.0285087C10.3861 -0.107153 8.45966 0.24286 6.70715 1.04637C4.95463 1.84987 3.43225 3.08108 2.27998 4.62678C1.12771 6.17249 0.382532 7.98307 0.112968 9.89207C-0.156596 11.8011 0.0581042 13.7472 0.737327 15.5515C1.41655 17.3558 2.53849 18.9605 4 20.2178V29.5065C4.00003 29.7623 4.06543 30.0137 4.18999 30.237C4.31455 30.4604 4.49413 30.6481 4.71168 30.7825C4.92923 30.9169 5.17753 30.9935 5.43298 31.0049C5.68844 31.0163 5.94257 30.9622 6.17125 30.8478L11.5 28.184L16.83 30.8478C17.0586 30.9619 17.3126 31.0158 17.5679 31.0042C17.8232 30.9926 18.0713 30.916 18.2886 30.7817C18.506 30.6473 18.6855 30.4597 18.81 30.2365C18.9344 30.0134 18.9999 29.7621 19 29.5065V20.2178C20.255 19.1397 21.2621 17.8031 21.9525 16.2995C22.6429 14.796 23.0002 13.161 23 11.5065ZM3 11.5065C3 9.82541 3.49852 8.18202 4.43251 6.7842C5.3665 5.38638 6.69402 4.29692 8.24719 3.65357C9.80036 3.01023 11.5094 2.8419 13.1583 3.16987C14.8071 3.49785 16.3217 4.30739 17.5104 5.49614C18.6992 6.68489 19.5087 8.19944 19.8367 9.84828C20.1646 11.4971 19.9963 13.2062 19.353 14.7594C18.7096 16.3125 17.6202 17.64 16.2223 18.574C14.8245 19.508 13.1811 20.0065 11.5 20.0065C9.24637 20.0042 7.08571 19.108 5.49215 17.5144C3.89859 15.9208 3.00232 13.7602 3 11.5065ZM16 27.0803L12.17 25.1653C11.9616 25.061 11.7318 25.0067 11.4988 25.0067C11.2657 25.0067 11.0359 25.061 10.8275 25.1653L7 27.0791V22.0891C8.42309 22.6942 9.9536 23.006 11.5 23.006C13.0464 23.006 14.5769 22.6942 16 22.0891V27.0803ZM11.5 18.0065C12.7856 18.0065 14.0423 17.6253 15.1112 16.9111C16.1801 16.1969 17.0132 15.1817 17.5052 13.994C17.9972 12.8063 18.1259 11.4993 17.8751 10.2385C17.6243 8.97758 17.0052 7.8194 16.0962 6.91035C15.1872 6.00131 14.029 5.38225 12.7681 5.13144C11.5072 4.88064 10.2003 5.00936 9.01256 5.50133C7.82484 5.9933 6.80968 6.82642 6.09545 7.89534C5.38122 8.96426 5 10.221 5 11.5065C5.00199 13.2298 5.68744 14.882 6.906 16.1006C8.12456 17.3191 9.7767 18.0046 11.5 18.0065ZM11.5 8.00655C12.1922 8.00655 12.8689 8.21182 13.4445 8.59641C14.0201 8.98099 14.4687 9.52762 14.7336 10.1672C14.9985 10.8067 15.0678 11.5104 14.9327 12.1894C14.7977 12.8683 14.4644 13.4919 13.9749 13.9814C13.4854 14.4709 12.8617 14.8042 12.1828 14.9393C11.5039 15.0743 10.8002 15.005 10.1606 14.7401C9.52107 14.4752 8.97444 14.0266 8.58986 13.451C8.20527 12.8755 8 12.1988 8 11.5065C8 10.5783 8.36875 9.68805 9.02513 9.03168C9.68151 8.3753 10.5717 8.00655 11.5 8.00655Z" fill="#FFC000"/>
</svg>
