<svg width="20" height="20" viewBox="0 1 28 29" fill="none" xmlns="http://www.w3.org/2000/svg">
<path d="M24.695 10.6062L14.7013 1.17247L14.6812 1.15372C14.222 0.733414 13.622 0.500305 12.9994 0.500305C12.3768 0.500305 11.7768 0.733414 11.3175 1.15372L11.2963 1.17247L1.305 10.6062C1.05163 10.8406 0.849354 11.1248 0.71084 11.441C0.572325 11.7572 0.500549 12.0985 0.5 12.4437V24C0.5 24.663 0.763392 25.2989 1.23223 25.7677C1.70107 26.2366 2.33696 26.5 3 26.5H9C9.66304 26.5 10.2989 26.2366 10.7678 25.7677C11.2366 25.2989 11.5 24.663 11.5 24V18.5H14.5V24C14.5 24.663 14.7634 25.2989 15.2322 25.7677C15.7011 26.2366 16.337 26.5 17 26.5H23C23.663 26.5 24.2989 26.2366 24.7678 25.7677C25.2366 25.2989 25.5 24.663 25.5 24V12.4437C25.4995 12.0985 25.4277 11.7572 25.2892 11.441C25.1506 11.1248 24.9484 10.8406 24.695 10.6062ZM22.5 23.5H17.5V18C17.5 17.6717 17.4353 17.3466 17.3097 17.0433C17.1841 16.74 16.9999 16.4644 16.7678 16.2322C16.5356 16.0001 16.26 15.8159 15.9567 15.6903C15.6534 15.5646 15.3283 15.5 15 15.5H11C10.337 15.5 9.70107 15.7634 9.23223 16.2322C8.76339 16.701 8.5 17.3369 8.5 18V23.5H3.5V12.66L13 3.69122L22.5 12.66V23.5Z" fill="#fff"/>
</svg>
