<svg width="27" height="23" viewBox="0 0 27 23" fill="none" xmlns="http://www.w3.org/2000/svg">
<path d="M15.5 9C15.5 8.60218 15.658 8.22064 15.9393 7.93934C16.2206 7.65804 16.6022 7.5 17 7.5H21C21.3978 7.5 21.7794 7.65804 22.0607 7.93934C22.342 8.22064 22.5 8.60218 22.5 9C22.5 9.39782 22.342 9.77936 22.0607 10.0607C21.7794 10.342 21.3978 10.5 21 10.5H17C16.6022 10.5 16.2206 10.342 15.9393 10.0607C15.658 9.77936 15.5 9.39782 15.5 9ZM17 15.5H21C21.3978 15.5 21.7794 15.342 22.0607 15.0607C22.342 14.7794 22.5 14.3978 22.5 14C22.5 13.6022 22.342 13.2206 22.0607 12.9393C21.7794 12.658 21.3978 12.5 21 12.5H17C16.6022 12.5 16.2206 12.658 15.9393 12.9393C15.658 13.2206 15.5 13.6022 15.5 14C15.5 14.3978 15.658 14.7794 15.9393 15.0607C16.2206 15.342 16.6022 15.5 17 15.5ZM27 2.5V20.5C27 21.163 26.7366 21.7989 26.2678 22.2678C25.7989 22.7366 25.163 23 24.5 23H2.5C1.83696 23 1.20107 22.7366 0.732233 22.2678C0.263392 21.7989 0 21.163 0 20.5V2.5C0 1.83696 0.263392 1.20107 0.732233 0.732233C1.20107 0.263392 1.83696 0 2.5 0H24.5C25.163 0 25.7989 0.263392 26.2678 0.732233C26.7366 1.20107 27 1.83696 27 2.5ZM24 3H3V20H24V3ZM4.285 15.4212C4.64492 14.5693 5.21471 13.8223 5.94125 13.25C5.42623 12.5845 5.10813 11.788 5.02306 10.9508C4.93798 10.1136 5.08935 9.26937 5.45997 8.51389C5.83059 7.75842 6.40562 7.122 7.11975 6.6769C7.83389 6.2318 8.65851 5.99586 9.5 5.99586C10.3415 5.99586 11.1661 6.2318 11.8802 6.6769C12.5944 7.122 13.1694 7.75842 13.54 8.51389C13.9106 9.26937 14.062 10.1136 13.9769 10.9508C13.8919 11.788 13.5738 12.5845 13.0588 13.25C13.7857 13.8222 14.3559 14.5692 14.7162 15.4212C14.8697 15.7884 14.8711 16.2015 14.72 16.5697C14.5689 16.9378 14.2778 17.2309 13.9106 17.3844C13.5435 17.5379 13.1304 17.5392 12.7622 17.3881C12.3941 17.2371 12.101 16.9459 11.9475 16.5788C11.56 15.6488 10.5525 15 9.5 15C8.4475 15 7.44125 15.65 7.05125 16.5788C6.97933 16.7662 6.87052 16.9373 6.73126 17.0819C6.592 17.2265 6.42513 17.3417 6.24054 17.4206C6.05594 17.4995 5.85738 17.5406 5.65662 17.5414C5.45587 17.5422 5.25699 17.5026 5.07179 17.4251C4.88659 17.3476 4.71883 17.2338 4.57846 17.0902C4.43808 16.9467 4.32794 16.7765 4.25457 16.5896C4.1812 16.4027 4.14608 16.203 4.15131 16.0023C4.15654 15.8017 4.202 15.604 4.285 15.4212ZM8 10.5C8 10.7967 8.08797 11.0867 8.2528 11.3334C8.41762 11.58 8.65189 11.7723 8.92597 11.8858C9.20006 11.9993 9.50166 12.0291 9.79264 11.9712C10.0836 11.9133 10.3509 11.7704 10.5607 11.5607C10.7704 11.3509 10.9133 11.0836 10.9712 10.7926C11.0291 10.5017 10.9994 10.2001 10.8858 9.92597C10.7723 9.65189 10.58 9.41762 10.3334 9.2528C10.0867 9.08797 9.79667 9 9.5 9C9.10218 9 8.72064 9.15804 8.43934 9.43934C8.15804 9.72064 8 10.1022 8 10.5Z" fill="#343330"/>
</svg>
