<svg width="25" height="25" viewBox="0 0 30 26" fill="none" xmlns="http://www.w3.org/2000/svg">
<path d="M27.249 0.39795H19.249C18.4993 0.397709 17.7576 0.55122 17.0696 0.848995C16.3816 1.14677 15.762 1.58248 15.249 2.1292C14.7361 1.58248 14.1165 1.14677 13.4285 0.848995C12.7405 0.55122 11.9987 0.397709 11.249 0.39795H3.24902C2.58598 0.39795 1.9501 0.661342 1.48126 1.13018C1.01242 1.59902 0.749023 2.23491 0.749023 2.89795V18.8979C0.749023 19.561 1.01242 20.1969 1.48126 20.6657C1.9501 21.1346 2.58598 21.3979 3.24902 21.3979H11.249C11.9121 21.3979 12.5479 21.6613 13.0168 22.1302C13.4856 22.599 13.749 23.2349 13.749 23.8979C13.749 24.2958 13.9071 24.6773 14.1884 24.9586C14.4697 25.2399 14.8512 25.3979 15.249 25.3979C15.6468 25.3979 16.0284 25.2399 16.3097 24.9586C16.591 24.6773 16.749 24.2958 16.749 23.8979C16.749 23.2349 17.0124 22.599 17.4813 22.1302C17.9501 21.6613 18.586 21.3979 19.249 21.3979H27.249C27.9121 21.3979 28.5479 21.1346 29.0168 20.6657C29.4856 20.1969 29.749 19.561 29.749 18.8979V2.89795C29.749 2.23491 29.4856 1.59902 29.0168 1.13018C28.5479 0.661342 27.9121 0.39795 27.249 0.39795ZM11.249 18.3979H3.74902V3.39795H11.249C11.9121 3.39795 12.5479 3.66134 13.0168 4.13018C13.4856 4.59902 13.749 5.23491 13.749 5.89795V18.9992C12.9753 18.6031 12.1183 18.397 11.249 18.3979ZM26.749 18.3979H19.249C18.3795 18.3974 17.5224 18.6044 16.749 19.0017V5.89795C16.749 5.23491 17.0124 4.59902 17.4813 4.13018C17.9501 3.66134 18.586 3.39795 19.249 3.39795H26.749V18.3979ZM19.749 6.89795H23.749C24.1468 6.89795 24.5284 7.05598 24.8097 7.33729C25.091 7.61859 25.249 8.00012 25.249 8.39795C25.249 8.79577 25.091 9.17731 24.8097 9.45861C24.5284 9.73991 24.1468 9.89795 23.749 9.89795H19.749C19.3512 9.89795 18.9697 9.73991 18.6884 9.45861C18.4071 9.17731 18.249 8.79577 18.249 8.39795C18.249 8.00012 18.4071 7.61859 18.6884 7.33729C18.9697 7.05598 19.3512 6.89795 19.749 6.89795ZM25.249 13.3979C25.249 13.7958 25.091 14.1773 24.8097 14.4586C24.5284 14.7399 24.1468 14.8979 23.749 14.8979H19.749C19.3512 14.8979 18.9697 14.7399 18.6884 14.4586C18.4071 14.1773 18.249 13.7958 18.249 13.3979C18.249 13.0001 18.4071 12.6186 18.6884 12.3373C18.9697 12.056 19.3512 11.8979 19.749 11.8979H23.749C24.1468 11.8979 24.5284 12.056 24.8097 12.3373C25.091 12.6186 25.249 13.0001 25.249 13.3979Z" fill="#171717"/>
</svg>
