<svg width="33" height="33" viewBox="0 0 33 33" fill="none" xmlns="http://www.w3.org/2000/svg">
<path d="M23.0002 29.5004C23.0002 29.8982 22.8421 30.2797 22.5608 30.561C22.2795 30.8424 21.898 31.0004 21.5002 31.0004H11.5002C11.1023 31.0004 10.7208 30.8424 10.4395 30.561C10.1582 30.2797 10.0002 29.8982 10.0002 29.5004C10.0002 29.1026 10.1582 28.721 10.4395 28.4397C10.7208 28.1584 11.1023 28.0004 11.5002 28.0004H21.5002C21.898 28.0004 22.2795 28.1584 22.5608 28.4397C22.8421 28.721 23.0002 29.1026 23.0002 29.5004ZM28.0002 13.5004C28.0047 15.2431 27.611 16.9639 26.8491 18.5313C26.0872 20.0986 24.9772 21.4712 23.6039 22.5441C23.4179 22.6858 23.2668 22.8682 23.1622 23.0773C23.0575 23.2863 23.0021 23.5166 23.0002 23.7504V24.0004C23.0002 24.6634 22.7368 25.2993 22.2679 25.7682C21.7991 26.237 21.1632 26.5004 20.5002 26.5004H12.5002C11.8371 26.5004 11.2012 26.237 10.7324 25.7682C10.2636 25.2993 10.0002 24.6634 10.0002 24.0004V23.7504C9.9999 23.5205 9.94677 23.2937 9.84491 23.0876C9.74304 22.8815 9.59515 22.7015 9.41267 22.5616C8.04313 21.4949 6.93417 20.1306 6.16971 18.572C5.40524 17.0134 5.00531 15.3014 5.00017 13.5654C4.96642 7.33664 10.0002 2.15039 16.2239 2.00039C17.7572 1.96355 19.2824 2.23378 20.7097 2.79519C22.1369 3.3566 23.4375 4.19785 24.5348 5.26941C25.6321 6.34098 26.504 7.62121 27.0991 9.03477C27.6943 10.4483 28.0006 11.9667 28.0002 13.5004ZM25.0002 13.5004C25.0005 12.3666 24.774 11.2442 24.334 10.1992C23.894 9.15428 23.2494 8.20792 22.4381 7.41587C21.6268 6.62382 20.6653 6.00207 19.6101 5.58724C18.5549 5.17241 17.4274 4.97288 16.2939 5.00039C11.6952 5.11039 7.97517 8.94414 8.00017 13.5479C8.00445 14.8309 8.30039 16.0962 8.86559 17.2481C9.43079 18.3999 10.2505 19.4082 11.2627 20.1966C11.7726 20.5902 12.1917 21.089 12.4916 21.6591C12.7914 22.2292 12.9649 22.8572 13.0002 23.5004H20.0127C20.0487 22.856 20.2224 22.2267 20.5221 21.6551C20.8218 21.0835 21.2406 20.5828 21.7502 20.1866C22.7653 19.3932 23.5857 18.3784 24.149 17.2196C24.7122 16.0609 25.0033 14.7888 25.0002 13.5004ZM22.4914 12.8354C22.3587 11.713 21.9149 10.6501 21.2101 9.76657C20.5053 8.88306 19.5675 8.21417 18.5027 7.83539C18.1305 7.71378 17.7255 7.74253 17.3742 7.91549C17.0229 8.08845 16.7532 8.39192 16.6226 8.76107C16.4921 9.13021 16.511 9.53578 16.6755 9.89113C16.8399 10.2465 17.1368 10.5235 17.5027 10.6629C18.0378 10.8505 18.5097 11.184 18.8652 11.6258C19.2206 12.0676 19.4453 12.6 19.5139 13.1629C19.5577 13.5584 19.7568 13.9203 20.0674 14.169C20.2212 14.2922 20.3977 14.3838 20.5869 14.4388C20.7762 14.4937 20.9743 14.5108 21.1702 14.4891C21.366 14.4675 21.5557 14.4074 21.7283 14.3125C21.9009 14.2175 22.0532 14.0895 22.1763 13.9357C22.2995 13.7819 22.3911 13.6053 22.446 13.4161C22.501 13.2269 22.5181 13.0287 22.4964 12.8329L22.4914 12.8354Z" fill="#343330"/>
</svg>