<svg width="25" height="23" viewBox="0 0 28 23" fill="none" xmlns="http://www.w3.org/2000/svg">
<path d="M8.67188 1.77979H19.7485C21.745 1.77979 23.1047 1.78263 24.1223 1.9222C25.0998 2.05891 25.5526 2.29674 25.86 2.61433C26.1687 2.93048 26.3999 3.3976 26.5315 4.40161C26.6685 5.44835 26.6713 6.84684 26.6713 8.90044V14.597C26.6713 16.652 26.6685 18.0491 26.5329 19.0958C26.3999 20.1012 26.1687 20.5669 25.86 20.8831C25.5526 21.2007 25.0984 21.4385 24.1223 21.5738C23.1047 21.7148 21.7464 21.7176 19.7485 21.7176H8.67188C6.67533 21.7176 5.31568 21.7148 4.29802 21.5752C3.32051 21.4385 2.86776 21.2007 2.56038 20.8831C2.25162 20.5669 2.0204 20.0998 1.88887 19.0958C1.75179 18.0491 1.74902 16.652 1.74902 14.597V8.90044C1.74902 6.84684 1.75179 5.44835 1.88748 4.40161C2.0204 3.39617 2.25162 2.93048 2.56038 2.61433C2.86776 2.29674 3.3219 2.05891 4.29802 1.92362C5.31568 1.78263 6.67533 1.77979 8.67188 1.77979Z" stroke="black" stroke-width="1.66524"/>
<path d="M3.08887 3.55273L10.596 10.9986C12.1457 12.5356 12.9192 13.3033 13.8133 13.3033C14.7075 13.3033 15.481 12.5356 17.0307 10.9986L24.5378 3.55273" stroke="black" stroke-width="1.66524"/>
</svg>
