<svg width="20" height="16" viewBox="0 0 20 16" fill="none" xmlns="http://www.w3.org/2000/svg">
<path d="M18.857 0.728027H0.770747C0.416007 0.728027 0.127686 1.0166 0.127686 1.37134V2.66552C0.127686 2.72514 0.192344 2.79358 0.245178 2.82125L9.75173 8.2513C9.77638 8.26564 9.80406 8.27218 9.83173 8.27218C9.85991 8.27218 9.88834 8.26489 9.91325 8.25004L19.1325 2.82653C19.1843 2.7976 19.3217 2.72112 19.3733 2.68589C19.4356 2.64338 19.5001 2.60488 19.5001 2.52865V1.37109C19.5001 1.0166 19.2117 0.728027 18.857 0.728027Z" fill="#39748D" fill-opacity="0.5"/>
<path d="M5.87247 8.13398C5.91021 8.09952 5.92908 8.04869 5.92355 7.99813C5.91801 7.9473 5.88782 7.90227 5.84354 7.87661L0.36745 4.74885C0.318642 4.72067 0.257002 4.72118 0.207188 4.74986C0.157876 4.77854 0.127686 4.83162 0.127686 4.88873V13.0956C0.127686 13.1592 0.165424 13.2171 0.223793 13.2425C0.244423 13.2518 0.266311 13.2563 0.288451 13.2563C0.327951 13.2563 0.36745 13.2415 0.397641 13.2133L5.87247 8.13398Z" fill="#39748D" fill-opacity="0.5"/>
<path d="M19.5863 4.74933C19.536 4.72014 19.4746 4.7214 19.424 4.75033L14.2068 7.81997C14.1651 7.84413 14.1361 7.88689 14.1291 7.9352C14.1228 7.98325 14.1379 8.03231 14.1703 8.06779L19.3883 13.6926C19.4193 13.726 19.4615 13.7439 19.5058 13.7439C19.5257 13.7439 19.5458 13.7401 19.5647 13.7331C19.6263 13.7087 19.6666 13.6495 19.6666 13.5831V4.88896C19.6666 4.83109 19.6361 4.77801 19.5863 4.74933Z" fill="#39748D" fill-opacity="0.5"/>
<path d="M12.6486 8.77936C12.5958 8.72425 12.5109 8.71203 12.4438 8.74994L10.2917 9.96973C10.039 10.1129 9.71536 10.1141 9.4611 9.97497L7.56712 8.93274C7.50446 8.89857 7.42549 8.9068 7.37267 8.95419L0.180457 15.3801C0.142137 15.4145 0.122977 15.4642 0.128673 15.5143C0.13437 15.5644 0.164663 15.6093 0.209973 15.6345C0.321826 15.6979 0.429795 15.728 0.539576 15.728H18.9623C19.0284 15.728 19.0879 15.6904 19.1138 15.632C19.1402 15.5742 19.1283 15.5066 19.0833 15.4602L12.6486 8.77936Z" fill="#39748D" fill-opacity="0.5"/>
</svg>
