<svg width="17" height="17" viewBox="0 0 17 17" fill="none" xmlns="http://www.w3.org/2000/svg">
<path d="M13.5302 13.2193C13.6711 13.3602 13.7503 13.5513 13.7503 13.7506C13.7503 13.9499 13.6711 14.141 13.5302 14.2818C13.3893 14.4227 13.1982 14.5019 12.999 14.5019C12.7997 14.5019 12.6086 14.4227 12.4677 14.2818L7.46774 9.28185C7.39782 9.21217 7.34234 9.12937 7.30449 9.03821C7.26663 8.94705 7.24715 8.84931 7.24715 8.7506C7.24715 8.65189 7.26663 8.55415 7.30449 8.46298C7.34234 8.37182 7.39782 8.28903 7.46774 8.21935L12.4677 3.21935C12.6086 3.07845 12.7997 2.9993 12.999 2.9993C13.1982 2.9993 13.3893 3.07845 13.5302 3.21935C13.6711 3.36024 13.7503 3.55134 13.7503 3.7506C13.7503 3.94986 13.6711 4.14095 13.5302 4.28185L9.06211 8.74997L13.5302 13.2193ZM4.06211 8.74997L8.53211 4.2806C8.67301 4.1397 8.75217 3.94861 8.75217 3.74935C8.75217 3.55009 8.67301 3.35899 8.53211 3.2181C8.39122 3.0772 8.20012 2.99805 8.00086 2.99805C7.80161 2.99805 7.61051 3.0772 7.46961 3.2181L2.46961 8.2181C2.39969 8.28778 2.34422 8.37057 2.30636 8.46173C2.26851 8.5529 2.24902 8.65064 2.24902 8.74935C2.24902 8.84806 2.26851 8.9458 2.30636 9.03696C2.34422 9.12813 2.39969 9.21092 2.46961 9.2806L7.46961 14.2806C7.53938 14.3504 7.6222 14.4057 7.71335 14.4435C7.80451 14.4812 7.9022 14.5006 8.00086 14.5006C8.09953 14.5006 8.19722 14.4812 8.28838 14.4435C8.37953 14.4057 8.46235 14.3504 8.53211 14.2806C8.60188 14.2108 8.65722 14.128 8.69498 14.0369C8.73273 13.9457 8.75217 13.848 8.75217 13.7493C8.75217 13.6507 8.73273 13.553 8.69498 13.4618C8.65722 13.3707 8.60188 13.2879 8.53211 13.2181L4.06211 8.74997Z" fill="#343330"/>
</svg>
