<svg width="17" height="17" viewBox="0 0 17 17" fill="none" xmlns="http://www.w3.org/2000/svg">
<path d="M3.46878 4.28065C3.32789 4.13976 3.24873 3.94866 3.24873 3.7494C3.24873 3.55015 3.32789 3.35905 3.46878 3.21815C3.60968 3.07726 3.80077 2.9981 4.00003 2.9981C4.19929 2.9981 4.39039 3.07726 4.53128 3.21815L9.53128 8.21815C9.6012 8.28783 9.65668 8.37063 9.69453 8.46179C9.73239 8.55295 9.75187 8.65069 9.75187 8.7494C9.75187 8.84811 9.73239 8.94585 9.69453 9.03702C9.65668 9.12818 9.6012 9.21097 9.53128 9.28065L4.53128 14.2807C4.39039 14.4215 4.19929 14.5007 4.00003 14.5007C3.80078 14.5007 3.60968 14.4215 3.46878 14.2807C3.32789 14.1398 3.24873 13.9487 3.24873 13.7494C3.24873 13.5501 3.32789 13.359 3.46878 13.2182L7.93691 8.75003L3.46878 4.28065ZM12.9369 8.75003L8.46691 13.2194C8.32601 13.3603 8.24686 13.5514 8.24686 13.7507C8.24686 13.9499 8.32601 14.141 8.46691 14.2819C8.6078 14.4228 8.7989 14.502 8.99816 14.502C9.19742 14.502 9.38851 14.4228 9.52941 14.2819L14.5294 9.2819C14.5993 9.21222 14.6548 9.12943 14.6927 9.03827C14.7305 8.9471 14.75 8.84936 14.75 8.75065C14.75 8.65194 14.7305 8.5542 14.6927 8.46304C14.6548 8.37187 14.5993 8.28908 14.5294 8.2194L9.52941 3.2194C9.45964 3.14964 9.37682 3.0943 9.28567 3.05654C9.19452 3.01879 9.09682 2.99935 8.99816 2.99935C8.8995 2.99935 8.8018 3.01879 8.71065 3.05654C8.61949 3.0943 8.53667 3.14964 8.46691 3.2194C8.39714 3.28917 8.3418 3.37199 8.30405 3.46314C8.26629 3.5543 8.24686 3.65199 8.24686 3.75065C8.24686 3.84932 8.26629 3.94701 8.30405 4.03816C8.3418 4.12931 8.39714 4.21214 8.46691 4.2819L12.9369 8.75003Z" fill="#343330"/>
</svg>
