<svg width="28" height="27" viewBox="0 0 28 27" fill="none" xmlns="http://www.w3.org/2000/svg">
<path d="M14 0C11.33 0 8.71987 0.791761 6.49981 2.27516C4.27974 3.75856 2.54942 5.86697 1.52763 8.33377C0.505849 10.8006 0.238504 13.515 0.759405 16.1337C1.28031 18.7525 2.56606 21.1579 4.45406 23.0459C6.34207 24.934 8.74754 26.2197 11.3663 26.7406C13.985 27.2615 16.6994 26.9942 19.1662 25.9724C21.633 24.9506 23.7414 23.2203 25.2248 21.0002C26.7082 18.7801 27.5 16.17 27.5 13.5C27.496 9.9208 26.0724 6.48932 23.5416 3.95844C21.0107 1.42756 17.5792 0.00397028 14 0ZM14 24C11.9233 24 9.89324 23.3842 8.16652 22.2304C6.4398 21.0767 5.09399 19.4368 4.29927 17.5182C3.50455 15.5996 3.29662 13.4884 3.70176 11.4516C4.10691 9.41475 5.10693 7.54383 6.57538 6.07538C8.04384 4.60693 9.91476 3.6069 11.9516 3.20175C13.9884 2.79661 16.0996 3.00454 18.0182 3.79926C19.9368 4.59399 21.5767 5.9398 22.7304 7.66651C23.8842 9.39323 24.5 11.4233 24.5 13.5C24.497 16.2839 23.3898 18.9528 21.4213 20.9213C19.4529 22.8898 16.7839 23.997 14 24ZM20.5 13.5C20.5 13.8978 20.342 14.2794 20.0607 14.5607C19.7794 14.842 19.3978 15 19 15H15.5V18.5C15.5 18.8978 15.342 19.2794 15.0607 19.5607C14.7794 19.842 14.3978 20 14 20C13.6022 20 13.2206 19.842 12.9393 19.5607C12.658 19.2794 12.5 18.8978 12.5 18.5V15H9.00001C8.60218 15 8.22065 14.842 7.93935 14.5607C7.65804 14.2794 7.50001 13.8978 7.50001 13.5C7.50001 13.1022 7.65804 12.7206 7.93935 12.4393C8.22065 12.158 8.60218 12 9.00001 12H12.5V8.5C12.5 8.10218 12.658 7.72064 12.9393 7.43934C13.2206 7.15804 13.6022 7 14 7C14.3978 7 14.7794 7.15804 15.0607 7.43934C15.342 7.72064 15.5 8.10218 15.5 8.5V12H19C19.3978 12 19.7794 12.158 20.0607 12.4393C20.342 12.7206 20.5 13.1022 20.5 13.5Z" fill="#343330"/>
</svg>
