<svg width="27" height="27" viewBox="0 0 27 27" fill="none" xmlns="http://www.w3.org/2000/svg">
<path d="M25.9516 20.0656H24.2223C24.221 21.0739 24.211 21.7919 24.1368 22.3448L24.1367 22.3455C24.0938 22.661 24.0343 22.8871 23.9604 23.0577L25.2202 24.3175C25.5903 23.8159 25.763 23.2266 25.8504 22.5762L25.9516 20.0656ZM25.9516 20.0656C25.9507 21.0628 25.9411 21.8978 25.8504 22.576L25.9516 20.0656ZM7.50605 2.13232V2.32446H7.15763H7.15507C7.12156 2.32446 7.08815 2.32446 7.05485 2.32446C6.98853 2.32445 6.92263 2.32445 6.85715 2.32446H6.74132V2.32452C6.40768 2.32479 6.08547 2.326 5.77676 2.33123V2.13232H7.50605ZM3.7454 5.1484L2.48547 3.88846C2.98647 3.51855 3.57658 3.34586 4.22836 3.25842C4.44991 3.22874 4.68848 3.20776 4.94415 3.19291V4.92498C4.76874 4.93673 4.6077 4.95205 4.45849 4.97203L4.45767 4.97214C4.1421 5.01504 3.91605 5.07454 3.7454 5.1484ZM1.89691 4.4774L3.15665 5.73715C3.0828 5.90779 3.0233 6.13385 2.9804 6.44941L2.9803 6.45012C2.90611 7.00294 2.89614 7.72092 2.89482 8.72922H1.16545C1.16643 7.73211 1.17598 6.89708 1.26667 6.21891C1.35407 5.56838 1.52671 4.97904 1.89691 4.4774ZM1.16534 9.56184H1.61367V9.65791V12.2198V12.6361H2.02998H2.89462V19.233H1.16534V9.56184ZM24.2225 19.233V12.6361H25.0871H25.5034V12.2198V9.65791V9.56184H25.9518V19.233H24.2225ZM25.9516 8.72922H24.2223C24.221 7.72092 24.211 7.00294 24.1368 6.45012L24.1367 6.44941C24.0938 6.13385 24.0343 5.90779 23.9604 5.73715L25.2204 4.47721C25.5903 4.97817 25.763 5.56808 25.8504 6.21876C25.9411 6.8958 25.9507 7.73172 25.9516 8.72922ZM24.6314 3.88866L23.3717 5.1484C23.201 5.07454 22.975 5.01504 22.6594 4.97214L22.6587 4.97205C22.5097 4.95204 22.3486 4.93671 22.1729 4.92496V3.19291C22.4286 3.20775 22.6672 3.22874 22.8887 3.25842C23.5403 3.34583 24.1298 3.51848 24.6314 3.88866ZM21.3403 2.13232V2.33122C21.032 2.326 20.7102 2.32479 20.3771 2.32452V2.32446H20.2609C20.1955 2.32445 20.1297 2.32445 20.0634 2.32446L19.9633 2.32446H19.9607H19.611V2.13232H21.3403ZM19.9607 5.71899H19.962C20.5045 5.71899 20.9567 5.71963 21.3403 5.72639V5.91113H19.611V5.71899H19.9607ZM21.3403 3.16402V4.89358C21.052 4.88856 20.7331 4.88703 20.3785 4.88656L20.3794 3.15719C20.7183 3.15753 21.0386 3.15885 21.3403 3.16402ZM19.7179 6.74375H21.2335C21.1945 6.81475 21.1454 6.88052 21.0871 6.93883L21.3815 7.23321L21.0871 6.93883C20.9249 7.10098 20.705 7.19208 20.4757 7.19208C20.2464 7.19208 20.0264 7.10098 19.8643 6.93883C19.806 6.88052 19.7569 6.81475 19.7179 6.74375ZM8.33867 4.88637V3.15708H18.7784V4.88637H8.33867ZM7.15763 5.71899H7.50605V5.91113H5.77676V5.72639C6.16015 5.71963 6.61216 5.71899 7.15507 5.71899H7.15763ZM5.88358 6.74375H7.39923C7.36023 6.81475 7.31111 6.88052 7.2528 6.93883C7.09065 7.10098 6.87073 7.19208 6.64141 7.19208C6.41209 7.19208 6.19216 7.10098 6.03001 6.93883C5.9717 6.88052 5.92258 6.81475 5.88358 6.74375ZM6.73876 3.15719V4.88656C6.38384 4.88703 6.06504 4.88856 5.77676 4.89358V3.16403C6.0788 3.15885 6.39943 3.15753 6.73876 3.15719ZM21.2335 1.2997H19.7179C19.7569 1.2287 19.806 1.16292 19.8643 1.10462C20.0264 0.942464 20.2464 0.851368 20.4757 0.851368C20.705 0.851368 20.9249 0.942464 21.0871 1.10462L21.3815 0.810241L21.0871 1.10462C21.1454 1.16292 21.1945 1.2287 21.2335 1.2997ZM23.3717 23.6465L24.6316 24.9064C24.1306 25.2763 23.5407 25.449 22.8899 25.5365C22.2129 25.6271 21.377 25.6367 20.3796 25.6377V23.9083C21.3879 23.907 22.1059 23.897 22.6587 23.8228L22.6594 23.8227C22.975 23.7798 23.201 23.7203 23.3717 23.6465ZM19.547 23.9085V25.6378H7.5701V23.9085H19.547ZM6.73748 23.9083V25.6377C5.74037 25.6367 4.90534 25.6271 4.22716 25.5365C3.57664 25.4491 2.98729 25.2764 2.48566 24.9062L3.7454 23.6465C3.91605 23.7203 4.1421 23.7798 4.45767 23.8227L4.45837 23.8228C5.0112 23.897 5.72918 23.907 6.73748 23.9083ZM3.15665 23.0577L1.89672 24.3177C1.52678 23.8167 1.3541 23.2267 1.26667 22.576C1.17598 21.8989 1.16643 21.0631 1.16545 20.0656H2.89482C2.89614 21.0741 2.90611 21.7931 2.98032 22.3449L2.9804 22.3455C3.0233 22.661 3.0828 22.8871 3.15665 23.0577ZM2.44629 10.0742H2.89462V11.8035H2.44629V10.0742ZM3.72724 10.0742H23.3899V11.8035H3.72724V10.0742ZM24.6708 11.8035H24.2225V10.0742H24.6708V11.8035ZM7.39923 1.2997H5.88358C5.92258 1.2287 5.9717 1.16292 6.03001 1.10462L5.73564 0.810241L6.03001 1.10462C6.19216 0.942464 6.41209 0.851368 6.64141 0.851368C6.87072 0.851368 7.09065 0.942464 7.2528 1.10462L7.54718 0.810241L7.2528 1.10462C7.31111 1.16292 7.36023 1.2287 7.39923 1.2997Z" fill="black" stroke="black" stroke-width="0.832619"/>
</svg>
