<svg width="25" height="25" viewBox="0 0 28 29" fill="none" xmlns="http://www.w3.org/2000/svg">
<path d="M11.9771 3.99454L13.2653 1.263C13.4307 0.912332 13.9085 0.912332 14.0738 1.263L15.3621 3.99454L18.243 4.43526C18.6127 4.49182 18.76 4.96736 18.4924 5.24016L16.4081 7.36487L16.9 10.3665C16.9632 10.752 16.5766 11.046 16.2459 10.8639L13.6696 9.44593L11.0933 10.8639C10.7625 11.046 10.3759 10.752 10.4391 10.3665L10.931 7.36487L8.84672 5.24016C8.57911 4.96736 8.72644 4.49182 9.09607 4.43526L11.9771 3.99454Z" stroke="black" stroke-width="1.67043" stroke-linecap="round" stroke-linejoin="round"/>
<path d="M26.132 26.9999H18.332V22.811C18.332 22.3323 18.72 21.9443 19.1987 21.9443H26.132C26.6107 21.9443 26.9987 22.3323 26.9987 22.811V26.1332C26.9987 26.6119 26.6107 26.9999 26.132 26.9999Z" stroke="black" stroke-width="1.67043" stroke-linecap="round" stroke-linejoin="round"/>
<path d="M9.2998 27.0001V19.9223C9.2998 19.4436 8.94163 19.0557 8.4998 19.0557H2.0998C1.65798 19.0557 1.2998 19.4436 1.2998 19.9223V26.1334C1.2998 26.6121 1.65798 27.0001 2.0998 27.0001H9.2998Z" stroke="black" stroke-width="1.67043" stroke-linecap="round" stroke-linejoin="round"/>
<path d="M16.71 27.2423H10.71V15.3392C10.71 14.8696 10.9786 14.489 11.31 14.489H16.11C16.4414 14.489 16.71 14.8696 16.71 15.3392V27.2423Z" stroke="black" stroke-width="1.67043" stroke-linecap="round" stroke-linejoin="round"/>
</svg>
