<svg width="25" height="25" viewBox="0 0 27 27" fill="none" xmlns="http://www.w3.org/2000/svg">
<path d="M13.2102 7.24985C12.0304 7.24985 10.8772 7.59959 9.89631 8.25484C8.91541 8.91009 8.15089 9.84142 7.69942 10.9311C7.24796 12.0207 7.12984 13.2197 7.35999 14.3765C7.59015 15.5332 8.15824 16.5958 8.99243 17.4298C9.82662 18.2637 10.8894 18.8317 12.0465 19.0618C13.2036 19.2919 14.4029 19.1738 15.4928 18.7224C16.5827 18.2711 17.5143 17.5068 18.1697 16.5261C18.8251 15.5455 19.175 14.3925 19.175 13.2131C19.1731 11.6321 18.5441 10.1164 17.4259 8.99846C16.3077 7.88053 14.7916 7.25168 13.2102 7.24985ZM13.2102 16.4241C12.5749 16.4241 11.954 16.2358 11.4258 15.8829C10.8976 15.5301 10.4859 15.0286 10.2428 14.4419C9.99975 13.8552 9.93615 13.2095 10.0601 12.5867C10.184 11.9638 10.4899 11.3917 10.9391 10.9426C11.3883 10.4935 11.9605 10.1877 12.5836 10.0638C13.2066 9.93992 13.8524 10.0035 14.4393 10.2465C15.0262 10.4896 15.5278 10.9011 15.8807 11.4292C16.2336 11.9572 16.422 12.578 16.422 13.2131C16.422 14.0647 16.0836 14.8814 15.4813 15.4836C14.8789 16.0858 14.062 16.4241 13.2102 16.4241ZM23.7633 13.3037V13.1225L25.3692 11.1145C25.504 10.9462 25.5973 10.7487 25.6418 10.5377C25.6862 10.3268 25.6804 10.1084 25.625 9.90006C25.3352 8.8073 24.902 7.75768 24.3368 6.77853C24.2279 6.59181 24.0766 6.43336 23.895 6.31601C23.7135 6.19866 23.5068 6.12571 23.2918 6.10308L20.7361 5.81638L20.6088 5.68909L20.322 3.13292C20.2992 2.91818 20.2262 2.71181 20.1088 2.53052C19.9914 2.34923 19.833 2.1981 19.6464 2.08935C18.6669 1.52249 17.6166 1.0879 16.5229 0.796934C16.3144 0.742277 16.0959 0.737358 15.8851 0.782574C15.6743 0.82779 15.4771 0.921877 15.3093 1.05725L13.3008 2.66274H13.1196L11.111 1.05725C10.9427 0.922485 10.7451 0.829129 10.5341 0.784709C10.3231 0.74029 10.1046 0.746048 9.89627 0.801522C8.80295 1.09305 7.75304 1.52801 6.77393 2.09509C6.58789 2.20339 6.42986 2.3538 6.31252 2.53424C6.19518 2.71469 6.12181 2.92013 6.09831 3.13407L5.81154 5.68909L5.68421 5.81638L3.12738 6.10308C2.91258 6.12589 2.70617 6.19891 2.52483 6.31626C2.34349 6.4336 2.19232 6.59196 2.08354 6.77853C1.51813 7.75799 1.08497 8.80802 0.795379 9.90121C0.740081 10.1093 0.734418 10.3276 0.778846 10.5383C0.823274 10.749 0.916552 10.9464 1.05118 11.1145L2.65708 13.1225V13.3037L1.05118 15.3117C0.916374 15.48 0.822994 15.6775 0.778563 15.8885C0.734132 16.0994 0.739892 16.3178 0.795379 16.5261C1.08734 17.6192 1.52281 18.6689 2.09043 19.6477C2.19864 19.8335 2.34891 19.9914 2.52919 20.1087C2.70947 20.226 2.91474 20.2995 3.12853 20.3231L5.68421 20.6075L5.81154 20.7348L6.09831 23.2933C6.12112 23.508 6.19417 23.7144 6.31154 23.8957C6.42891 24.077 6.58731 24.2281 6.77393 24.3368C7.75341 24.9037 8.80372 25.3383 9.89742 25.6293C10.106 25.6839 10.3244 25.6888 10.5352 25.6436C10.746 25.5984 10.9433 25.5043 11.111 25.3689L13.1196 23.7635H13.3008L15.3093 25.3689C15.4776 25.5037 15.6752 25.5971 15.8862 25.6415C16.0972 25.6859 16.3157 25.6802 16.5241 25.6247C17.6171 25.335 18.667 24.9019 19.6464 24.3368C19.8329 24.2288 19.9914 24.0785 20.1091 23.8981C20.2269 23.7176 20.3006 23.512 20.3243 23.2979L20.6088 20.7428L20.7361 20.6156L23.293 20.3231C23.5072 20.2994 23.7128 20.2257 23.8933 20.108C24.0738 19.9902 24.2241 19.8318 24.3322 19.6454C24.8992 18.6662 25.3339 17.6161 25.625 16.5227C25.6799 16.3149 25.6854 16.0971 25.6409 15.8868C25.5965 15.6765 25.5034 15.4796 25.3692 15.3117L23.7633 13.3037ZM20.9965 12.7429C21.0149 13.0561 21.0149 13.3701 20.9965 13.6833C20.976 14.0237 21.0827 14.3597 21.2959 14.6259L22.7687 16.4665C22.6297 16.8779 22.4638 17.2798 22.2721 17.6695L19.9286 17.9298C19.5893 17.9686 19.2765 18.1321 19.0511 18.3885C18.8427 18.6232 18.6205 18.8453 18.3858 19.0536C18.1293 19.279 17.9657 19.5917 17.9269 19.9309L17.6677 22.2726C17.278 22.4651 16.876 22.6318 16.4644 22.7715L14.6234 21.2979C14.379 21.103 14.0756 20.997 13.7631 20.9974C13.7355 20.9974 13.708 20.9974 13.6805 20.9974C13.3672 21.0158 13.0531 21.0158 12.7399 20.9974C12.3996 20.9773 12.0638 21.0835 11.797 21.2956L9.95592 22.7692C9.54438 22.6302 9.14242 22.4643 8.75264 22.2726L8.49225 19.9298C8.45346 19.5906 8.28992 19.2779 8.03342 19.0525C7.79866 18.8442 7.5765 18.6221 7.36812 18.3874C7.14266 18.1309 6.8299 17.9674 6.49061 17.9287L4.14828 17.6695C3.95577 17.2799 3.78908 16.878 3.6493 16.4665L5.12215 14.6259C5.33534 14.3597 5.44203 14.0237 5.42153 13.6833C5.40318 13.3701 5.40318 13.0561 5.42153 12.7429C5.44203 12.4025 5.33534 12.0665 5.12215 11.8003L3.6516 9.95969C3.79063 9.54826 3.95655 9.14641 4.14828 8.75672L6.49175 8.4964C6.83105 8.45762 7.14381 8.29413 7.36927 8.03769C7.57764 7.80299 7.7998 7.58088 8.03457 7.37256C8.29107 7.14716 8.45461 6.83448 8.4934 6.49527L8.75264 4.15355C9.14237 3.96109 9.54433 3.79445 9.95592 3.65471L11.797 5.12831C12.0638 5.34046 12.3996 5.44663 12.7399 5.42648C13.0531 5.40813 13.3672 5.40813 13.6805 5.42648C14.0209 5.44729 14.3569 5.34104 14.6234 5.12831L16.4644 3.65471C16.876 3.79445 17.278 3.96109 17.6677 4.15355L17.9281 6.49642C17.9669 6.83563 18.1304 7.14831 18.3869 7.37371C18.6217 7.58203 18.8438 7.80413 19.0522 8.03884C19.2777 8.29527 19.5904 8.45876 19.9297 8.49755L22.2721 8.75672C22.4646 9.14635 22.6313 9.5482 22.771 9.95969L21.2982 11.8003C21.0842 12.0662 20.9767 12.4022 20.9965 12.7429Z" fill="black"/>
</svg>
