<svg width="23" height="31" viewBox="0 0 23 31" fill="none" xmlns="http://www.w3.org/2000/svg">
<path d="M23 11.5036C23.0011 9.57569 22.5175 7.67842 21.5936 5.98626C20.6697 4.2941 19.3353 2.86137 17.7129 1.8198C16.0906 0.778223 14.2324 0.161241 12.3092 0.025579C10.3861 -0.110083 8.45966 0.23993 6.70715 1.04344C4.95463 1.84694 3.43225 3.07815 2.27998 4.62385C1.12771 6.16956 0.382532 7.98014 0.112968 9.88914C-0.156596 11.7981 0.0581042 13.7443 0.737327 15.5486C1.41655 17.3529 2.53849 18.9575 4 20.2149V29.5036C4.00003 29.7593 4.06543 30.0108 4.18999 30.2341C4.31455 30.4574 4.49413 30.6452 4.71168 30.7796C4.92923 30.914 5.17753 30.9905 5.43298 31.0019C5.68844 31.0134 5.94257 30.9593 6.17125 30.8449L11.5 28.1811L16.83 30.8449C17.0586 30.959 17.3126 31.0128 17.5679 31.0013C17.8232 30.9897 18.0713 30.9131 18.2886 30.7788C18.506 30.6444 18.6855 30.4568 18.81 30.2336C18.9344 30.0104 18.9999 29.7592 19 29.5036V20.2149C20.255 19.1367 21.2621 17.8002 21.9525 16.2966C22.6429 14.7931 23.0002 13.1581 23 11.5036ZM3 11.5036C3 9.82248 3.49852 8.17909 4.43251 6.78127C5.3665 5.38345 6.69402 4.29399 8.24719 3.65064C9.80036 3.0073 11.5094 2.83897 13.1583 3.16694C14.8071 3.49492 16.3217 4.30447 17.5104 5.49321C18.6992 6.68196 19.5087 8.19651 19.8367 9.84535C20.1646 11.4942 19.9963 13.2033 19.353 14.7564C18.7096 16.3096 17.6202 17.6371 16.2223 18.5711C14.8245 19.5051 13.1811 20.0036 11.5 20.0036C9.24637 20.0013 7.08571 19.105 5.49215 17.5115C3.89859 15.9179 3.00232 13.7572 3 11.5036ZM16 27.0774L12.17 25.1624C11.9616 25.0581 11.7318 25.0038 11.4988 25.0038C11.2657 25.0038 11.0359 25.0581 10.8275 25.1624L7 27.0761V22.0861C8.42309 22.6912 9.9536 23.0031 11.5 23.0031C13.0464 23.0031 14.5769 22.6912 16 22.0861V27.0774ZM11.5 18.0036C12.7856 18.0036 14.0423 17.6224 15.1112 16.9082C16.1801 16.1939 17.0132 15.1788 17.5052 13.9911C17.9972 12.8033 18.1259 11.4964 17.8751 10.2355C17.6243 8.97466 17.0052 7.81647 16.0962 6.90742C15.1872 5.99838 14.029 5.37932 12.7681 5.12851C11.5072 4.87771 10.2003 5.00643 9.01256 5.4984C7.82484 5.99037 6.80968 6.82349 6.09545 7.89241C5.38122 8.96133 5 10.218 5 11.5036C5.00199 13.2269 5.68744 14.8791 6.906 16.0976C8.12456 17.3162 9.7767 18.0016 11.5 18.0036ZM11.5 8.00362C12.1922 8.00362 12.8689 8.20889 13.4445 8.59348C14.0201 8.97806 14.4687 9.52469 14.7336 10.1642C14.9985 10.8038 15.0678 11.5075 14.9327 12.1864C14.7977 12.8654 14.4644 13.489 13.9749 13.9785C13.4854 14.468 12.8617 14.8013 12.1828 14.9364C11.5039 15.0714 10.8002 15.0021 10.1606 14.7372C9.52107 14.4723 8.97444 14.0237 8.58986 13.4481C8.20527 12.8725 8 12.1959 8 11.5036C8 10.5754 8.36875 9.68512 9.02513 9.02875C9.68151 8.37237 10.5717 8.00362 11.5 8.00362Z" fill="#FFC000"/>
<ellipse cx="11.5" cy="10.9971" rx="10.5" ry="11" fill="#E4E4E4"/>
<path d="M5 21.9971H18V28.9971L11.5 26.9971L5 28.9971V21.9971Z" fill="#2A96F9"/>
<path d="M23 11.5036C23.0011 9.57569 22.5175 7.67842 21.5936 5.98626C20.6697 4.2941 19.3353 2.86137 17.7129 1.8198C16.0906 0.778223 14.2324 0.161241 12.3092 0.025579C10.3861 -0.110083 8.45966 0.23993 6.70715 1.04344C4.95463 1.84694 3.43225 3.07815 2.27998 4.62385C1.12771 6.16956 0.382532 7.98014 0.112968 9.88914C-0.156596 11.7981 0.0581042 13.7443 0.737327 15.5486C1.41655 17.3529 2.53849 18.9575 4 20.2149V29.5036C4.00003 29.7593 4.06543 30.0108 4.18999 30.2341C4.31455 30.4574 4.49413 30.6452 4.71168 30.7796C4.92923 30.914 5.17753 30.9905 5.43298 31.0019C5.68844 31.0134 5.94257 30.9593 6.17125 30.8449L11.5 28.1811L16.83 30.8449C17.0586 30.959 17.3126 31.0128 17.5679 31.0013C17.8232 30.9897 18.0713 30.9131 18.2886 30.7788C18.506 30.6444 18.6855 30.4568 18.81 30.2336C18.9344 30.0104 18.9999 29.7592 19 29.5036V20.2149C20.255 19.1367 21.2621 17.8002 21.9525 16.2966C22.6429 14.7931 23.0002 13.1581 23 11.5036ZM3 11.5036C3 9.82248 3.49852 8.17909 4.43251 6.78127C5.3665 5.38345 6.69402 4.29399 8.24719 3.65064C9.80036 3.0073 11.5094 2.83897 13.1583 3.16694C14.8071 3.49492 16.3217 4.30447 17.5104 5.49321C18.6992 6.68196 19.5087 8.19651 19.8367 9.84535C20.1646 11.4942 19.9963 13.2033 19.353 14.7564C18.7096 16.3096 17.6202 17.6371 16.2223 18.5711C14.8245 19.5051 13.1811 20.0036 11.5 20.0036C9.24637 20.0013 7.08571 19.105 5.49215 17.5115C3.89859 15.9179 3.00232 13.7572 3 11.5036ZM16 27.0774L12.17 25.1624C11.9616 25.0581 11.7318 25.0038 11.4988 25.0038C11.2657 25.0038 11.0359 25.0581 10.8275 25.1624L7 27.0761V22.0861C8.42309 22.6912 9.9536 23.0031 11.5 23.0031C13.0464 23.0031 14.5769 22.6912 16 22.0861V27.0774ZM11.5 18.0036C12.7856 18.0036 14.0423 17.6224 15.1112 16.9082C16.1801 16.1939 17.0132 15.1788 17.5052 13.9911C17.9972 12.8033 18.1259 11.4964 17.8751 10.2355C17.6243 8.97466 17.0052 7.81647 16.0962 6.90742C15.1872 5.99838 14.029 5.37932 12.7681 5.12851C11.5072 4.87771 10.2003 5.00643 9.01256 5.4984C7.82484 5.99037 6.80968 6.82349 6.09545 7.89241C5.38122 8.96133 5 10.218 5 11.5036C5.00199 13.2269 5.68744 14.8791 6.906 16.0976C8.12456 17.3162 9.7767 18.0016 11.5 18.0036ZM11.5 8.00362C12.1922 8.00362 12.8689 8.20889 13.4445 8.59348C14.0201 8.97806 14.4687 9.52469 14.7336 10.1642C14.9985 10.8038 15.0678 11.5075 14.9327 12.1864C14.7977 12.8654 14.4644 13.489 13.9749 13.9785C13.4854 14.468 12.8617 14.8013 12.1828 14.9364C11.5039 15.0714 10.8002 15.0021 10.1606 14.7372C9.52107 14.4723 8.97444 14.0237 8.58986 13.4481C8.20527 12.8725 8 12.1959 8 11.5036C8 10.5754 8.36875 9.68512 9.02513 9.02875C9.68151 8.37237 10.5717 8.00362 11.5 8.00362Z" fill="#D6D3CD"/>
</svg>
