<svg width="30" height="29" viewBox="0 0 30 29" fill="none" xmlns="http://www.w3.org/2000/svg">
<path d="M8.20361 7.06217L12.2869 1.77572C12.5786 1.38683 12.925 1.10124 13.326 0.918945C13.7271 0.736654 14.1463 0.645508 14.5838 0.645508C15.0213 0.645508 15.4406 0.736654 15.8416 0.918945C16.2427 1.10124 16.589 1.38683 16.8807 1.77572L20.964 7.06217L27.1619 9.1403C27.7939 9.33474 28.2922 9.69325 28.6567 10.2158C29.0213 10.7384 29.2036 11.3156 29.2036 11.9476C29.2036 12.2393 29.1611 12.5309 29.076 12.8226C28.9909 13.1143 28.8512 13.3938 28.6567 13.6611L24.6463 19.3486L24.7922 25.3278C24.8165 26.1785 24.5369 26.8955 23.9536 27.4788C23.3703 28.0622 22.6897 28.3538 21.9119 28.3538C21.8633 28.3538 21.596 28.3174 21.1099 28.2445L14.5838 26.4216L8.05778 28.2445C7.93625 28.2931 7.80257 28.3235 7.65674 28.3356C7.5109 28.3478 7.37722 28.3538 7.2557 28.3538C6.47792 28.3538 5.79736 28.0622 5.21403 27.4788C4.6307 26.8955 4.35118 26.1785 4.37549 25.3278L4.52132 19.3122L0.547363 13.6611C0.352919 13.3938 0.213162 13.1143 0.128092 12.8226C0.043023 12.5309 0.000488281 12.2393 0.000488281 11.9476C0.000488281 11.34 0.176704 10.7748 0.529134 10.2523C0.881565 9.72971 1.37375 9.35905 2.0057 9.1403L8.20361 7.06217ZM9.99007 9.5778L2.91715 11.9111L7.43799 18.4372L7.29215 25.4007L14.5838 23.3955L21.8755 25.4372L21.7297 18.4372L26.2505 11.984L19.1776 9.5778L14.5838 3.56217L9.99007 9.5778Z" fill="black"/>
</svg>
