<svg width="30" height="28" viewBox="0 0 30 28" fill="none" xmlns="http://www.w3.org/2000/svg">
<path d="M26.7072 11.2569L26.703 11.2598L26.7072 11.2569ZM26.7072 11.2569L26.8002 11.192L26.7072 11.2569ZM10.1024 10.683L11.3979 10.2486L12.2332 9.16724L15.0521 5.51779L17.871 9.16724L18.7062 10.2486L20.0017 10.683L24.2573 12.1098L21.4369 16.1097L20.5797 17.3254L20.6159 18.8126L20.7103 22.6841L16.2627 21.4417L15.0521 21.1035L13.8414 21.4417L9.39351 22.6841L9.48826 18.7755L9.52423 17.2918L8.67054 16.0779L5.87377 12.1008L10.1024 10.683ZM3.53686 11.3192L3.45953 11.3417L3.53686 11.3192ZM3.43136 11.35L3.35023 11.3736L3.43136 11.35Z" fill="#FCC22C" stroke="#FCC22C" stroke-width="9"/>
</svg>
