<svg width="25" height="25" viewBox="0 0 32 32" fill="none" xmlns="http://www.w3.org/2000/svg">
<path d="M20.5473 22.6375C21.47 21.734 22.1027 20.5762 22.3647 19.3116C22.6266 18.047 22.5059 16.7331 22.018 15.5374C21.5301 14.3417 20.6971 13.3184 19.6252 12.5981C18.5533 11.8778 17.2912 11.4932 15.9998 11.4932C14.7084 11.4932 13.4462 11.8778 12.3743 12.5981C11.3025 13.3184 10.4695 14.3417 9.98154 15.5374C9.49363 16.7331 9.37296 18.047 9.6349 19.3116C9.89685 20.5762 10.5295 21.734 11.4523 22.6375C9.88997 23.468 8.59105 24.7189 7.70228 26.2488C7.51195 26.5927 7.46423 26.9976 7.56939 27.3764C7.67455 27.7551 7.92418 28.0775 8.26459 28.2741C8.60499 28.4706 9.00896 28.5257 9.38957 28.4275C9.77019 28.3293 10.097 28.0855 10.2998 27.7488C10.8859 26.7585 11.7199 25.9379 12.7196 25.3679C13.7193 24.7979 14.8503 24.4982 16.001 24.4982C17.1518 24.4982 18.2827 24.7979 19.2825 25.3679C20.2822 25.9379 21.1161 26.7585 21.7023 27.7488C21.7988 27.9232 21.9291 28.0765 22.0855 28.2C22.2419 28.3234 22.4214 28.4145 22.6134 28.4678C22.8054 28.5211 23.0062 28.5356 23.2039 28.5105C23.4016 28.4854 23.5923 28.4211 23.7648 28.3214C23.9374 28.2218 24.0884 28.0887 24.209 27.9301C24.3296 27.7714 24.4173 27.5903 24.4671 27.3973C24.5169 27.2044 24.5278 27.0034 24.499 26.8062C24.4703 26.609 24.4026 26.4195 24.2998 26.2488C23.4103 24.7185 22.1105 23.4676 20.5473 22.6375ZM12.4998 18C12.4998 17.3078 12.7051 16.6311 13.0896 16.0555C13.4742 15.48 14.0208 15.0314 14.6604 14.7665C15.2999 14.5016 16.0037 14.4322 16.6826 14.5673C17.3615 14.7023 17.9852 15.0357 18.4747 15.5252C18.9641 16.0146 19.2975 16.6383 19.4325 17.3172C19.5676 17.9962 19.4983 18.6999 19.2334 19.3394C18.9685 19.979 18.5199 20.5256 17.9443 20.9102C17.3687 21.2948 16.692 21.5 15.9998 21.5C15.0715 21.5 14.1813 21.1313 13.5249 20.4749C12.8685 19.8185 12.4998 18.9283 12.4998 18ZM30.901 19.1988C30.7435 19.3172 30.5641 19.4035 30.3732 19.4526C30.1823 19.5017 29.9836 19.5126 29.7885 19.4849C29.5933 19.4572 29.4056 19.3912 29.2359 19.2909C29.0663 19.1905 28.9181 19.0577 28.7998 18.9C27.7585 17.5138 26.3185 16.4513 25.1335 16.195C24.8184 16.1269 24.5337 15.959 24.3215 15.7164C24.1092 15.4737 23.9809 15.1691 23.9553 14.8477C23.9298 14.5264 24.0085 14.2053 24.1797 13.9322C24.351 13.659 24.6057 13.4483 24.906 13.3313C25.28 13.1853 25.6133 12.9514 25.8778 12.6493C26.1423 12.3473 26.3301 11.986 26.4255 11.596C26.5208 11.206 26.5208 10.7988 26.4255 10.4088C26.3301 10.0188 26.1423 9.65755 25.8778 9.35551C25.6133 9.05347 25.28 8.81956 24.906 8.67357C24.532 8.52759 24.1284 8.47381 23.7292 8.5168C23.3301 8.5598 22.9471 8.69829 22.6128 8.92056C22.2785 9.14283 22.0026 9.44235 21.8085 9.79379C21.7165 9.97188 21.5897 10.1297 21.4356 10.258C21.2815 10.3862 21.1033 10.4823 20.9115 10.5405C20.7196 10.5987 20.5181 10.6178 20.3187 10.5968C20.1193 10.5758 19.9262 10.515 19.7507 10.4181C19.5752 10.3211 19.421 10.19 19.297 10.0325C19.1731 9.87489 19.082 9.69407 19.0291 9.5007C18.9762 9.30733 18.9627 9.10532 18.9892 8.90661C19.0157 8.7079 19.0818 8.51652 19.1835 8.34379C19.5547 7.68747 20.0569 7.11448 20.6588 6.66042C21.2608 6.20635 21.9496 5.8809 22.6827 5.70428C23.4157 5.52767 24.1772 5.50366 24.9199 5.63375C25.6626 5.76384 26.3706 6.04524 27 6.46049C27.6293 6.87574 28.1666 7.41596 28.5783 8.04759C28.9901 8.67922 29.2676 9.38877 29.3936 10.1322C29.5196 10.8756 29.4914 11.6369 29.3108 12.369C29.1301 13.101 28.8009 13.7881 28.3435 14.3875C29.4441 15.1207 30.4103 16.0378 31.1998 17.0988C31.4386 17.4169 31.5413 17.8168 31.4853 18.2107C31.4293 18.6045 31.2191 18.9599 30.901 19.1988ZM6.86603 16.1988C5.68103 16.455 4.24103 17.5175 3.19978 18.905C2.96026 19.2231 2.60418 19.433 2.20989 19.4886C1.81559 19.5442 1.41538 19.4408 1.09728 19.2013C0.779188 18.9618 0.569273 18.6057 0.513715 18.2114C0.458158 17.8171 0.561509 17.4169 0.801032 17.0988C1.59083 16.0381 2.55696 15.1211 3.65728 14.3875C3.19991 13.7881 2.87068 13.101 2.69003 12.369C2.50938 11.6369 2.48119 10.8756 2.60719 10.1322C2.73319 9.38877 3.0107 8.67922 3.42247 8.04759C3.83425 7.41596 4.37151 6.87574 5.00086 6.46049C5.63022 6.04524 6.33823 5.76384 7.08092 5.63375C7.82362 5.50366 8.58513 5.52767 9.31815 5.70428C10.0512 5.8809 10.7401 6.20635 11.342 6.66042C11.944 7.11448 12.4461 7.68747 12.8173 8.34379C12.919 8.51652 12.9851 8.7079 13.0116 8.90661C13.0382 9.10532 13.0246 9.30733 12.9717 9.5007C12.9188 9.69407 12.8277 9.87489 12.7038 10.0325C12.5799 10.19 12.4256 10.3211 12.2501 10.4181C12.0746 10.515 11.8815 10.5758 11.6821 10.5968C11.4828 10.6178 11.2812 10.5987 11.0894 10.5405C10.8975 10.4823 10.7193 10.3862 10.5652 10.258C10.4111 10.1297 10.2843 9.97188 10.1923 9.79379C9.99819 9.44235 9.72232 9.14283 9.38799 8.92056C9.05367 8.69829 8.67073 8.5598 8.27157 8.5168C7.87241 8.47381 7.46877 8.52759 7.09478 8.67357C6.7208 8.81956 6.38747 9.05347 6.123 9.35551C5.85852 9.65755 5.67068 10.0188 5.57536 10.4088C5.48003 10.7988 5.48003 11.206 5.57535 11.596C5.67068 11.986 5.85852 12.3473 6.123 12.6493C6.38747 12.9514 6.7208 13.1853 7.09478 13.3313C7.39516 13.4483 7.64985 13.659 7.82109 13.9322C7.99233 14.2053 8.07101 14.5264 8.04548 14.8477C8.01995 15.1691 7.89156 15.4737 7.67935 15.7164C7.46713 15.959 7.18238 16.1269 6.86728 16.195L6.86603 16.1988Z" fill="#000000"/>
</svg>
